<?xml version="1.0" standalone="no"?>
<!DOCTYPE svg PUBLIC "-//W3C//DTD SVG 20010904//EN"
 "http://www.w3.org/TR/2001/REC-SVG-20010904/DTD/svg10.dtd">
<svg version="1.0" xmlns="http://www.w3.org/2000/svg"
 width="650.000000pt" height="975.000000pt" viewBox="0 0 650.000000 975.000000"
 preserveAspectRatio="xMidYMid meet">
<metadata>
Created by potrace 1.16, written by Peter Selinger 2001-2019
</metadata>
<g transform="translate(0.000000,975.000000) scale(0.100000,-0.100000)"
fill="#000000" stroke="none">
<path d="M3130 9414 c-14 -2 -56 -9 -95 -15 -211 -35 -422 -155 -546 -312 -22
-27 -36 -54 -32 -59 3 -7 1 -8 -5 -4 -24 15 -149 -211 -200 -359 -29 -89 -64
-233 -66 -277 0 -21 -4 -38 -8 -38 -5 0 -8 -10 -7 -22 0 -22 1 -22 10 -3 7 16
8 14 4 -10 -2 -16 -7 -51 -11 -77 -3 -26 -10 -45 -15 -42 -5 3 -9 -4 -9 -15 0
-12 5 -21 11 -21 5 0 7 5 3 11 -5 9 8 10 47 5 150 -17 169 -18 218 -6 42 10
66 9 143 -5 137 -24 155 -30 240 -79 l78 -44 -6 27 c-3 14 -11 44 -16 66 -6
22 -13 76 -17 120 l-6 80 -70 7 c-38 4 -110 12 -160 19 -49 7 -162 14 -250 15
-126 2 -160 5 -160 16 1 7 4 34 9 59 8 45 9 46 58 57 62 15 188 15 259 2 30
-6 89 -11 132 -11 44 0 93 -5 111 -13 l33 -14 0 32 c1 17 -6 57 -14 89 -16 57
-16 57 -53 57 -21 0 -57 7 -80 15 -23 8 -57 15 -74 15 -17 0 -60 9 -94 20 -36
11 -92 20 -127 20 l-64 0 11 33 c6 17 21 50 34 72 21 38 25 40 74 43 43 3 60
-2 91 -22 21 -14 43 -26 47 -26 5 0 26 -13 46 -29 29 -23 44 -28 69 -24 36 5
146 -12 160 -26 4 -4 9 -33 11 -63 5 -79 31 -150 75 -203 31 -37 42 -63 60
-140 12 -52 30 -110 41 -127 12 -20 20 -51 20 -76 0 -24 12 -80 26 -125 26
-81 44 -116 44 -86 0 13 13 14 90 7 50 -4 110 -13 133 -19 23 -6 57 -13 75
-16 32 -5 41 -16 21 -28 -5 -4 -8 -12 -6 -18 6 -18 -63 -71 -107 -83 -23 -6
-40 -15 -39 -20 1 -5 -7 -10 -17 -10 -10 0 -17 3 -14 7 2 4 -7 7 -20 7 -19 0
-7 -16 69 -90 51 -49 99 -94 108 -101 8 -7 27 -29 41 -50 20 -31 23 -42 14
-57 -9 -14 -9 -22 1 -34 7 -9 17 -13 22 -11 4 3 13 -11 18 -32 6 -21 29 -65
51 -98 37 -53 41 -65 39 -115 -1 -30 2 -89 6 -131 7 -72 6 -79 -20 -123 -47
-81 -71 -81 -224 -5 -53 27 -103 49 -111 49 -9 0 -21 13 -27 29 -11 30 -95 99
-100 84 -2 -5 11 -61 29 -123 32 -110 34 -115 72 -136 31 -17 53 -45 101 -126
44 -74 84 -125 141 -180 50 -48 92 -101 113 -139 32 -59 33 -64 32 -175 -1
-62 -4 -120 -7 -128 -4 -11 11 -17 68 -26 40 -6 97 -18 127 -26 29 -8 55 -13
58 -10 3 3 2 44 -2 91 l-7 85 -53 0 c-29 0 -67 3 -85 6 l-32 7 7 66 c4 36 9
68 11 70 2 2 24 -4 48 -13 25 -10 58 -16 73 -14 26 3 28 6 28 48 l0 44 -50 -4
c-124 -10 -126 -9 -152 39 -13 24 -21 46 -19 49 7 6 156 70 194 83 28 9 32 15
32 47 0 20 6 60 14 88 l14 52 -72 7 c-89 8 -142 -4 -250 -56 -87 -42 -118 -46
-124 -18 -4 22 75 55 191 80 51 11 121 34 157 52 69 34 80 54 66 113 -6 23
-10 24 -101 24 l-94 0 17 29 c12 21 27 31 52 36 19 3 59 13 88 21 60 17 62 22
32 110 -11 32 -20 59 -19 59 1 0 -1 17 -5 38 -6 33 -10 38 -29 34 -56 -14
-117 -19 -117 -10 0 6 -20 41 -45 79 -28 42 -45 79 -45 98 0 37 -41 109 -93
164 -46 47 -45 48 22 27 25 -8 65 -19 89 -25 42 -11 85 -46 150 -125 18 -22
30 -31 26 -20 -4 11 -9 34 -13 50 -3 17 -27 68 -52 115 -26 47 -64 131 -85
188 -37 101 -39 104 -103 155 -36 28 -96 82 -132 119 l-66 68 123 0 c67 0 129
3 138 6 11 4 16 19 16 48 0 23 6 48 13 55 7 9 7 11 1 8 -8 -5 -13 6 -16 28 -2
22 1 36 9 39 17 7 19 0 22 -60 1 -29 -2 -55 -8 -59 -6 -3 -8 -12 -4 -18 4 -7
8 -18 10 -26 1 -8 8 -18 15 -22 19 -12 68 -11 68 1 0 6 11 22 25 35 25 26 82
34 101 15 5 -5 26 -18 45 -27 37 -19 141 -128 164 -173 7 -14 22 -54 34 -89
26 -79 39 -304 22 -368 -10 -36 -9 -51 8 -100 10 -32 22 -71 26 -88 10 -45 14
-767 4 -951 -4 -92 -4 -200 1 -250 32 -321 32 -316 17 -358 -26 -69 -28 -108
-25 -374 3 -378 2 -428 -11 -647 -17 -261 -17 -751 -1 -935 15 -173 15 -216
-1 -340 -16 -124 -5 -684 16 -803 19 -105 19 -137 1 -137 -24 0 -63 148 -97
362 -11 70 -14 78 -40 89 -42 17 -109 89 -109 117 0 38 -30 92 -61 107 -15 8
-45 36 -66 61 -35 41 -201 176 -251 203 -11 6 -52 51 -91 101 -39 49 -84 96
-100 104 -16 9 -31 26 -35 40 -3 13 -9 32 -13 41 -6 16 -4 16 18 2 13 -8 61
-27 106 -42 45 -14 92 -35 105 -45 13 -10 40 -25 61 -34 45 -18 239 -36 320
-29 56 5 58 6 53 32 -3 14 -8 51 -12 82 l-6 55 -69 1 c-39 0 -72 3 -76 6 -3 4
0 20 7 38 15 34 44 49 97 49 l35 0 -7 88 c-4 48 -9 90 -11 93 -2 4 -16 9 -31
12 -45 9 -110 64 -133 111 -32 66 -96 134 -180 189 -41 27 -64 46 -50 42 14
-4 63 -32 110 -62 47 -29 103 -58 125 -64 22 -5 64 -19 94 -30 30 -10 55 -18
56 -17 1 2 0 65 -3 142 -4 128 -6 139 -24 144 -11 3 -54 21 -96 42 -133 64
-254 81 -352 51 -36 -12 -88 -21 -117 -21 l-51 0 -20 83 c-12 52 -15 86 -9 94
6 9 -1 21 -24 40 -18 16 -42 38 -53 50 -45 52 -45 26 -1 -166 33 -141 52 -191
74 -191 9 0 46 -25 81 -55 36 -31 96 -72 135 -93 81 -43 183 -134 220 -197 14
-24 32 -75 40 -112 8 -37 22 -96 31 -131 14 -52 15 -69 5 -103 -15 -49 -43
-79 -75 -79 -13 0 -29 -7 -36 -15 -21 -25 -59 -17 -103 20 -53 46 -128 82
-195 95 -29 5 -69 21 -90 35 -36 25 -62 32 -62 18 1 -20 29 -134 45 -185 15
-46 25 -60 57 -78 21 -12 38 -24 38 -28 0 -18 117 -151 160 -182 162 -116 198
-145 227 -185 18 -24 46 -51 63 -60 16 -8 36 -28 44 -43 26 -50 49 -224 33
-249 -4 -6 6 -19 22 -30 35 -22 104 -83 100 -87 -9 -7 -220 -31 -270 -30 -58
0 -133 32 -262 112 -52 31 -69 37 -142 41 l-83 6 -108 105 -109 105 47 3 c27
2 48 6 48 9 0 9 -51 96 -67 115 -8 9 -28 20 -43 23 -16 3 -41 18 -55 31 -23
21 -26 31 -22 60 6 35 5 36 -56 65 -34 16 -99 35 -144 43 -50 9 -106 27 -145
47 -57 29 -73 33 -168 36 -58 2 -114 4 -125 5 -42 2 -55 -2 -55 -17 0 -18 74
-61 120 -70 25 -5 43 -19 65 -48 17 -22 41 -44 55 -48 14 -3 44 -12 68 -18 30
-8 65 -33 120 -85 43 -40 110 -91 148 -114 108 -63 160 -104 258 -200 59 -58
104 -94 128 -101 21 -7 40 -16 43 -21 3 -5 53 -43 111 -85 104 -75 198 -125
236 -125 24 0 76 -26 104 -52 12 -10 49 -27 83 -38 75 -23 119 -54 160 -116
36 -55 40 -99 12 -161 -18 -38 -29 -46 -151 -107 -124 -62 -135 -66 -201 -66
-58 0 -79 -5 -126 -30 -70 -38 -66 -33 -53 -61 7 -13 46 -44 88 -68 42 -24
114 -66 159 -93 46 -27 124 -62 176 -79 103 -32 193 -86 232 -139 19 -26 25
-46 25 -86 0 -69 -13 -101 -50 -122 -17 -10 -36 -33 -45 -54 -8 -21 -19 -38
-25 -38 -5 0 -10 -4 -10 -9 0 -17 147 -36 168 -23 19 13 5 37 -34 58 -36 20
-38 23 -28 48 9 23 86 21 134 -4 22 -11 55 -34 75 -51 20 -18 37 -30 39 -28
15 17 74 394 64 405 -3 3 -37 -11 -75 -31 -37 -19 -84 -38 -103 -41 -32 -5
-40 0 -89 45 -29 28 -81 65 -115 82 -53 26 -56 29 -26 25 109 -17 187 -18 239
-2 30 9 83 16 118 16 72 0 71 -3 75 118 4 86 4 86 -124 46 -45 -14 -113 -28
-150 -30 -39 -2 -108 -16 -161 -33 -50 -16 -119 -32 -152 -35 -58 -6 -65 -4
-138 36 l-77 42 77 27 c43 15 106 39 141 54 46 19 91 28 170 35 79 7 133 18
208 44 60 20 124 36 157 37 l57 2 0 119 0 118 -48 -30 c-109 -67 -215 -103
-339 -115 l-68 -7 26 28 c33 36 49 67 49 93 0 16 11 22 55 31 30 6 55 16 55
21 0 13 -45 29 -83 29 -27 0 -39 9 -75 55 l-43 55 61 0 c34 0 90 -7 124 -16
84 -23 180 -23 239 -1 l47 19 0 152 c0 175 11 157 -112 192 l-68 19 0 93 0 94
42 -7 c24 -4 60 -14 82 -21 21 -8 42 -14 47 -14 5 0 9 81 9 180 l0 180 -51 0
c-27 0 -70 5 -95 11 -41 11 -45 14 -40 38 3 14 8 56 11 92 6 65 7 67 37 73 46
9 97 7 119 -4 18 -10 19 -7 19 63 l0 74 -52 6 c-73 8 -128 32 -128 57 0 25 40
27 120 6 30 -8 56 -14 57 -13 1 1 3 28 4 61 l3 58 -95 47 -94 46 -6 60 c-3 33
-4 62 -3 64 5 5 145 -48 172 -65 l22 -14 0 143 0 144 -42 18 c-143 61 -148 63
-148 87 0 13 -3 46 -6 73 -7 70 2 79 56 60 86 -30 94 3 15 58 -54 37 -55 39
-54 85 1 26 4 71 7 101 l7 54 50 -41 c28 -22 65 -54 83 -70 l32 -31 0 84 c0
81 -1 85 -45 157 -25 40 -60 87 -79 103 -32 29 -34 34 -40 118 -5 60 -4 87 4
87 14 0 87 -37 122 -61 14 -11 30 -19 35 -19 4 0 6 73 3 162 l-5 161 -70 29
c-101 42 -101 40 -88 148 6 50 15 96 20 101 7 7 31 -8 73 -45 34 -31 65 -56
69 -56 3 0 5 112 3 250 -2 178 -6 250 -14 250 -6 0 -40 -16 -75 -35 -35 -19
-66 -35 -68 -35 -3 0 -5 34 -5 75 l0 75 80 0 80 0 0 95 0 95 -28 0 c-16 0 -50
-7 -76 -16 -26 -9 -49 -14 -52 -11 -3 3 -2 41 1 85 8 91 9 92 103 92 l52 0 0
119 0 120 -69 -40 c-37 -21 -71 -39 -75 -39 -3 0 -6 45 -6 100 l0 99 38 7 c20
4 54 13 75 21 l37 15 0 153 0 153 -42 15 c-24 8 -61 21 -82 29 -34 11 -42 20
-57 63 -22 62 -24 115 -6 115 8 0 40 -18 73 -39 32 -22 71 -43 87 -46 l27 -7
0 111 c0 127 -4 134 -95 147 -69 9 -105 29 -105 57 0 20 6 23 43 26 66 6 100
4 125 -4 22 -7 22 -6 22 69 l0 76 -30 0 c-16 0 -44 -7 -63 -16 -25 -12 -44
-14 -76 -7 -40 7 -45 12 -63 58 -10 28 -32 67 -49 87 -16 20 -29 38 -29 40 0
2 66 3 146 3 80 0 147 1 148 3 2 1 -2 33 -8 70 -7 37 -9 81 -5 97 l7 30 1 -35
c1 -19 6 -53 11 -75 11 -47 37 -325 44 -475 6 -115 7 -5707 2 -5755 -2 -16 -7
-82 -10 -145 -25 -434 -146 -859 -310 -1087 -20 -28 -36 -54 -36 -58 0 -8 -9
-18 -89 -104 -71 -76 -45 -60 34 21 41 42 75 81 75 86 0 6 4 12 9 14 5 2 11 9
13 17 2 7 14 26 28 42 14 16 43 63 65 106 22 43 44 81 48 84 5 4 10 18 10 32
1 14 5 23 10 20 4 -2 7 2 7 9 0 7 16 62 35 122 20 59 37 120 38 135 2 14 8 35
14 46 6 11 13 40 17 65 4 25 12 72 17 105 6 33 12 78 14 100 2 22 7 56 11 75
3 19 8 60 10 90 2 30 8 109 13 175 6 71 9 1267 9 2925 0 2807 -1 2884 -32
3255 -6 77 -48 329 -59 355 -5 14 -10 28 -9 32 1 3 -5 28 -14 55 -8 26 -17 59
-20 72 -3 13 -14 44 -24 67 -11 24 -20 48 -20 54 0 6 -4 8 -10 5 -5 -3 -7 0
-4 8 2 7 -11 42 -31 76 -19 35 -35 67 -35 73 0 5 -4 7 -8 4 -5 -3 -16 12 -25
32 -9 20 -31 53 -49 72 -18 20 -48 55 -66 78 -18 23 -38 41 -45 39 -6 -1 -11
4 -12 10 0 18 -127 108 -210 150 -73 37 -153 66 -245 89 -54 14 -321 27 -370
18z m476 -90 c145 -45 226 -94 337 -206 44 -44 77 -82 74 -85 -3 -2 -44 0 -91
6 -63 7 -103 19 -155 45 -138 70 -280 93 -372 61 -24 -9 -84 -20 -134 -25 -49
-5 -108 -14 -130 -21 -27 -7 -81 -9 -171 -4 -141 7 -162 1 -129 -35 10 -11 54
-34 99 -51 77 -30 90 -32 276 -39 237 -9 286 -22 403 -107 29 -22 86 -47 150
-67 56 -18 121 -46 144 -63 31 -22 62 -33 116 -42 41 -7 102 -20 136 -31 33
-10 61 -15 62 -12 1 8 35 -106 44 -149 7 -30 7 -31 -17 -16 -12 8 -39 18 -58
22 -19 4 -54 16 -79 27 -24 10 -78 24 -120 30 -97 14 -158 38 -235 92 -68 49
-129 79 -324 161 l-132 55 -110 0 c-87 0 -120 4 -162 21 -29 11 -84 31 -123
44 -154 51 -227 84 -268 122 -23 21 -53 45 -66 53 l-23 16 72 57 c102 83 100
82 225 62 151 -25 204 -18 350 45 185 81 186 81 241 75 27 -2 104 -21 170 -41z
m-121 -614 c21 -22 28 -41 32 -89 4 -42 2 -61 -6 -61 -6 0 -11 9 -11 20 0 31
-41 52 -97 48 -38 -2 -48 -7 -48 -20 0 -33 -20 -22 -43 24 -12 25 -20 52 -16
61 8 21 39 31 61 18 13 -7 22 -4 39 14 26 29 51 24 89 -15z m-432 -16 c60 -19
111 -34 113 -34 2 0 4 -11 4 -24 0 -22 -4 -24 -67 -28 -38 -3 -88 0 -113 6
-41 10 -47 16 -72 66 -16 30 -28 56 -28 57 0 5 47 -7 163 -43z m201 -98 c54
-92 124 -124 145 -65 14 40 30 34 61 -24 26 -48 40 -56 58 -34 22 26 -44 121
-93 133 -15 4 -32 1 -40 -6 -12 -10 -15 -9 -15 4 0 12 10 16 38 16 43 0 67
-14 85 -50 21 -41 42 -32 43 19 0 25 6 47 12 49 9 3 12 -19 12 -74 l0 -78 -42
-43 -42 -43 42 -43 42 -43 0 -77 0 -77 -190 0 -190 0 0 75 0 75 107 0 107 0
-42 43 -42 43 40 39 c22 21 40 43 40 47 0 4 -47 8 -105 8 l-105 0 0 75 c0 73
1 75 24 75 18 0 31 -11 50 -44z m415 -150 c79 -66 88 -68 209 -56 59 6 132 13
162 14 30 2 75 7 100 10 95 12 147 13 147 2 0 -6 5 -35 12 -64 17 -69 12 -82
-31 -73 -18 4 -45 14 -58 22 -19 11 -74 14 -246 14 l-220 0 -62 32 c-34 17
-62 27 -62 22 0 -5 -18 10 -40 32 -37 38 -39 43 -25 59 8 9 15 25 15 34 0 13
6 17 20 13 14 -4 20 0 21 11 1 10 4 5 8 -9 3 -15 26 -43 50 -63z m-543 -51
c49 -29 69 -51 54 -60 -5 -3 -10 -29 -10 -56 0 -28 -3 -49 -7 -47 -88 42 -86
38 -112 156 -9 41 -8 42 12 36 12 -3 40 -17 63 -29z"/>
<path d="M2550 7690 c-8 -5 -43 -10 -78 -10 -35 0 -61 -4 -58 -9 3 -5 -3 -11
-15 -14 -16 -4 -18 -3 -8 9 10 12 4 14 -32 14 l-43 0 36 -32 c34 -31 161 -116
293 -195 53 -32 185 -86 192 -79 2 1 -8 18 -22 36 -36 49 -47 96 -31 134 l13
32 -89 44 c-49 24 -94 53 -100 63 -7 14 -13 16 -23 7 -8 -7 -14 -7 -17 -1 -2
7 -8 7 -18 1z"/>
<path d="M2137 7529 c-4 -51 -7 -121 -7 -155 0 -59 2 -64 25 -70 14 -3 44 -3
67 1 64 9 170 6 287 -11 139 -19 251 -19 251 0 0 13 -133 76 -160 76 -6 0 -28
9 -48 19 -111 58 -165 81 -187 81 -13 0 -39 13 -57 29 -18 16 -48 32 -65 35
-20 5 -46 23 -66 47 l-34 39 -6 -91z"/>
<path d="M3007 7532 c-21 -13 -26 -22 -21 -37 3 -11 6 -35 5 -52 -1 -32 6 -38
38 -33 7 1 32 -16 55 -38 22 -22 67 -56 99 -76 32 -20 84 -63 117 -97 38 -38
66 -59 77 -57 33 6 25 42 -25 108 -26 36 -61 86 -77 112 -27 44 -34 48 -68 48
-30 0 -46 8 -83 42 -24 23 -52 54 -62 70 -19 32 -18 32 -55 10z"/>
<path d="M2315 7214 c-44 -8 -93 -19 -109 -24 -16 -6 -40 -10 -53 -10 l-24 0
3 -112 3 -113 30 4 c36 4 76 24 95 46 11 13 30 16 94 15 45 -1 175 -2 290 -1
188 0 214 -2 254 -19 25 -11 46 -20 48 -20 6 0 -7 61 -23 113 -14 43 -17 47
-47 47 -53 0 -135 18 -203 45 -40 16 -98 29 -160 35 -116 11 -98 12 -198 -6z"/>
<path d="M2447 6906 c-37 -7 -73 -18 -79 -24 -16 -16 -69 -14 -92 3 -13 10
-43 15 -83 15 l-64 0 2 -207 c1 -115 3 -211 5 -215 2 -3 18 -2 36 3 21 6 36 5
45 -3 23 -18 250 -28 303 -12 25 7 74 19 109 26 36 7 66 18 68 24 7 20 -83 50
-234 79 -39 8 -87 21 -105 31 -18 9 -44 20 -58 25 -20 6 -17 7 20 8 28 1 68
12 105 30 53 26 169 49 215 43 8 0 52 -6 98 -13 82 -11 83 -11 102 14 12 15
34 27 59 31 46 7 60 26 64 82 2 33 -1 38 -28 46 -16 5 -55 6 -86 3 -31 -3 -76
-1 -100 4 -79 17 -231 20 -302 7z"/>
<path d="M3085 6640 c-4 -11 -20 -27 -36 -35 -16 -9 -29 -18 -29 -21 0 -14 79
-75 105 -80 20 -4 39 -19 57 -44 22 -31 131 -127 175 -153 15 -9 43 2 43 18 0
7 -29 43 -63 81 -35 38 -76 88 -91 112 -19 30 -32 42 -43 38 -28 -11 -127 64
-104 79 13 8 14 25 2 25 -5 0 -13 -9 -16 -20z"/>
<path d="M2909 6436 c-3 -3 -61 -19 -129 -37 -120 -30 -128 -31 -211 -20 -115
15 -140 14 -168 -6 l-24 -16 44 -12 c61 -15 159 -88 252 -187 195 -206 305
-333 377 -431 29 -40 60 -69 86 -82 23 -11 62 -39 89 -62 30 -27 58 -43 74
-43 14 0 42 -3 62 -6 30 -5 41 -2 60 17 l24 24 -48 7 c-27 3 -60 15 -75 25
l-27 18 32 3 c18 2 48 -1 68 -7 40 -11 40 -12 21 49 -28 91 -47 119 -93 136
-24 9 -43 20 -43 25 0 12 35 20 55 13 30 -12 10 40 -53 139 -66 105 -113 138
-232 162 -98 21 -164 47 -168 67 -4 20 61 53 136 68 28 7 52 14 52 16 0 2 -8
12 -17 22 -10 10 -40 42 -66 70 -43 47 -65 60 -78 48z"/>
<path d="M2132 6219 c0 -85 4 -133 12 -139 6 -5 27 -23 46 -40 l35 -31 -45 3
-45 3 -1 -82 c0 -78 1 -83 21 -83 34 0 87 21 118 47 18 14 42 23 63 23 19 0
34 2 34 4 0 2 -22 46 -50 99 -43 82 -50 104 -50 152 0 56 19 116 46 146 13 15
9 17 -53 22 -38 4 -82 7 -100 7 l-32 0 1 -131z"/>
<path d="M2450 6123 c0 -25 10 -53 30 -83 16 -25 30 -50 30 -55 0 -6 10 -19
23 -30 12 -10 52 -44 89 -76 36 -31 92 -77 123 -101 31 -23 73 -55 92 -70 67
-52 73 -29 10 40 -24 26 -60 70 -80 98 -20 28 -54 64 -74 80 -78 59 -119 102
-106 115 9 9 7 16 -12 31 -13 10 -26 26 -29 36 -7 20 -56 52 -80 52 -12 0 -16
-10 -16 -37z"/>
<path d="M3430 6045 c0 -3 4 -13 9 -23 5 -9 29 -58 55 -108 25 -50 52 -109 60
-131 8 -23 27 -60 42 -84 22 -35 27 -55 28 -108 0 -66 -27 -171 -45 -171 -5 0
-9 -4 -9 -10 0 -41 94 52 110 109 l10 38 57 -9 c32 -4 68 -10 81 -13 22 -5 22
-4 22 99 0 99 -1 104 -23 109 -12 4 -50 0 -85 -7 l-62 -13 -20 35 c-12 19 -19
37 -16 40 3 2 49 -1 101 -8 53 -6 100 -9 103 -5 10 10 -25 33 -87 56 -142 52
-170 69 -198 120 -14 27 -32 49 -40 49 -8 0 -32 9 -53 20 -22 11 -40 18 -40
15z"/>
<path d="M2461 5764 c-19 -13 -41 -24 -50 -24 -9 0 -29 -9 -46 -20 -26 -18
-45 -20 -130 -19 l-100 2 -2 -207 -1 -206 25 0 c14 0 37 -8 51 -19 36 -25 96
-41 159 -41 67 0 96 12 158 63 27 24 75 60 105 82 142 100 190 139 190 151 0
14 -102 94 -120 94 -6 0 -37 -25 -69 -55 -41 -39 -66 -55 -85 -55 -15 0 -50
-12 -79 -27 -40 -21 -66 -27 -112 -27 -91 0 -177 14 -172 27 2 7 47 21 100 32
97 20 172 56 182 86 3 9 19 22 36 29 32 14 79 64 79 84 0 11 -73 78 -82 75 -2
0 -18 -12 -37 -25z"/>
<path d="M3448 5337 c-13 -4 -18 -13 -14 -23 3 -9 6 -19 6 -24 0 -5 18 -30 41
-56 42 -49 63 -88 73 -136 4 -15 28 -52 55 -83 69 -79 86 -154 57 -263 -7 -29
-9 -52 -4 -52 21 0 49 22 63 50 l15 29 85 -29 85 -29 0 32 c0 18 -3 55 -6 84
-6 48 -9 52 -38 58 -17 4 -50 14 -74 23 -35 14 -44 23 -52 54 -6 20 -33 61
-60 91 -28 30 -50 59 -50 64 0 14 204 25 235 13 25 -9 25 -9 25 44 0 98 -10
145 -34 152 -29 10 -382 11 -408 1z"/>
<path d="M3106 5318 c-21 -30 -20 -94 3 -145 15 -32 31 -48 68 -67 26 -13 66
-43 88 -66 50 -53 153 -140 165 -140 5 0 14 9 21 21 9 18 6 28 -19 63 -16 22
-35 58 -43 79 -11 30 -18 37 -40 37 -15 0 -32 6 -38 14 -6 8 -25 19 -41 26
-37 15 -39 30 -4 30 14 0 24 3 22 8 -2 4 -12 24 -21 44 -17 38 -107 118 -132
118 -8 0 -21 -10 -29 -22z"/>
<path d="M2760 5306 c-71 -26 -284 -128 -344 -165 -78 -48 -142 -64 -221 -56
l-62 7 -2 -195 -2 -194 23 -7 c54 -14 216 -6 280 14 84 27 217 50 286 50 31 0
98 -7 149 -17 51 -9 95 -14 98 -12 2 3 0 23 -5 44 -5 22 -14 66 -20 98 l-11
57 -137 0 c-75 0 -168 -6 -207 -12 -38 -7 -99 -12 -135 -11 -42 2 -85 -4 -120
-16 -41 -14 -66 -17 -98 -11 -64 11 -60 17 18 24 38 4 99 15 135 25 54 15 72
27 112 69 46 48 94 72 147 72 10 0 58 19 108 42 83 40 89 45 83 68 -3 14 -11
51 -18 83 -6 31 -14 57 -17 56 -3 0 -21 -6 -40 -13z"/>
<path d="M2260 4614 c-41 -8 -86 -18 -100 -22 l-25 -8 0 -147 c0 -81 1 -147 2
-147 1 0 17 9 35 19 46 27 191 61 256 61 43 0 62 -5 88 -25 18 -14 36 -25 41
-25 5 0 25 -11 45 -25 25 -17 51 -25 79 -25 23 0 71 -5 105 -11 l63 -11 76 73
c41 40 72 76 68 80 -5 4 -33 14 -63 23 -110 30 -247 94 -310 144 -33 27 -73
52 -88 55 -53 10 -199 5 -272 -9z"/>
<path d="M3190 4291 c0 -9 -9 -34 -20 -55 -10 -22 -17 -43 -14 -47 5 -9 80
-45 141 -69 17 -6 39 -20 49 -31 9 -10 28 -19 41 -19 13 0 41 -11 61 -25 44
-30 62 -32 62 -6 0 22 -95 111 -152 143 -26 15 -38 29 -38 44 0 27 -12 37 -77
62 -49 18 -53 19 -53 3z"/>
<path d="M2237 4201 c-43 -10 -82 -22 -88 -28 -14 -14 -17 -203 -4 -203 6 0
38 10 70 22 70 26 200 30 420 12 102 -8 140 -15 175 -34 26 -13 70 -25 107
-28 61 -5 62 -4 56 19 -3 13 -21 58 -40 101 -40 87 -41 88 -159 88 -47 0 -100
6 -124 15 -23 8 -57 15 -75 15 -18 0 -49 7 -69 15 -57 24 -178 27 -269 6z"/>
<path d="M2136 3778 l1 -99 69 -6 c76 -6 191 -7 269 -2 74 4 214 -26 285 -60
34 -17 86 -49 115 -71 66 -51 99 -55 129 -17 17 23 21 41 20 100 -1 40 -7 96
-14 124 l-14 52 -90 20 c-146 31 -377 54 -581 56 l-190 3 1 -100z"/>
<path d="M3680 3461 c0 -25 67 -76 121 -92 21 -7 59 -29 85 -51 54 -44 84 -63
84 -51 0 4 -7 45 -16 90 l-17 82 -46 6 c-25 3 -64 10 -86 16 -22 6 -59 13 -82
16 -39 4 -43 3 -43 -16z"/>
<path d="M3214 3390 c-4 -19 -16 -36 -32 -44 l-26 -14 30 -18 c30 -19 84 -62
167 -135 44 -38 155 -90 197 -93 16 -1 26 5 28 17 5 26 -151 173 -213 201 -28
13 -58 35 -67 49 -10 14 -31 35 -48 47 l-30 22 -6 -32z"/>
<path d="M2135 3227 l0 -133 80 4 c52 3 94 11 119 24 22 11 66 23 98 25 32 3
58 8 58 12 0 3 -33 37 -74 76 -41 38 -76 77 -78 85 -3 10 -27 16 -84 21 -43 4
-88 10 -99 14 -19 6 -20 1 -20 -128z"/>
<path d="M2448 3029 c-49 -22 -117 -46 -152 -53 -74 -16 -118 -35 -124 -55 -4
-12 14 -13 109 -7 92 5 125 4 169 -10 30 -9 84 -17 120 -19 36 -1 82 -9 102
-18 21 -10 50 -17 65 -17 26 0 19 9 -74 100 -57 55 -103 104 -103 110 0 17
-21 11 -112 -31z"/>
<path d="M2137 2773 c-3 -5 -5 -78 -4 -163 l2 -155 30 4 c35 4 76 23 93 44 10
12 63 15 305 16 l292 2 81 -40 c71 -34 214 -118 214 -125 0 -10 -135 7 -166
21 -26 11 -69 17 -129 18 -49 1 -141 7 -202 14 -92 9 -128 8 -193 -3 -44 -7
-86 -18 -93 -24 -23 -19 -52 -19 -84 0 -24 14 -47 18 -90 16 l-58 -3 0 -100
c0 -55 2 -149 4 -208 l5 -108 25 7 c14 4 38 7 54 6 70 -5 85 -8 80 -14 -6 -12
391 -9 471 2 76 11 139 37 133 54 -2 7 -48 14 -116 18 -61 4 -144 16 -184 28
-58 16 -103 20 -213 20 -153 0 -173 5 -155 39 10 18 21 21 69 21 44 0 72 7
121 31 57 28 72 31 164 32 56 0 164 -2 239 -5 l137 -6 25 32 c27 36 102 63
191 70 49 4 105 23 105 36 0 8 -139 135 -207 189 -29 23 -53 45 -53 50 0 16
-75 39 -165 50 -105 13 -123 17 -230 61 -68 28 -98 34 -205 41 -143 10 -248
22 -271 33 -10 4 -19 4 -22 -1z"/>
<path d="M3039 1908 c12 -17 9 -18 -55 -20 -105 -3 -118 -4 -138 -13 -11 -5
-32 -3 -50 3 -24 9 -43 8 -86 -3 -35 -10 -75 -13 -110 -10 -38 4 -88 0 -159
-15 -84 -18 -121 -20 -195 -15 l-91 7 6 -92 c7 -104 14 -113 74 -106 189 24
211 18 128 -34 -27 -16 -60 -45 -75 -64 -15 -19 -43 -39 -61 -45 l-34 -12 12
-60 c7 -33 15 -62 18 -65 2 -3 19 7 37 22 28 24 43 30 87 33 6 1 33 19 58 41
25 22 53 40 61 40 8 0 14 7 14 15 0 24 25 28 79 15 48 -11 52 -11 85 15 54 41
97 47 168 24 73 -23 86 -24 109 -3 31 28 90 28 175 1 77 -25 184 -41 254 -38
29 1 175 9 203 11 17 1 5 21 -23 35 -27 14 -33 14 -61 -1 -29 -15 -36 -15 -88
0 -32 9 -79 16 -105 16 -26 0 -80 11 -119 25 -40 13 -105 31 -144 39 -71 15
-143 42 -143 55 0 17 75 53 159 75 52 14 97 29 101 33 3 5 -19 31 -49 58 -31
28 -50 42 -42 33z"/>
<path d="M2715 1351 c-22 -10 -56 -31 -76 -47 -52 -42 -213 -119 -291 -139
-38 -9 -68 -19 -68 -21 0 -20 44 -114 54 -114 36 0 115 34 188 81 86 55 277
225 278 247 0 17 -39 15 -85 -7z"/>
<path d="M2894 1322 c-5 -4 -35 -38 -66 -75 -31 -38 -82 -88 -114 -112 -33
-23 -77 -61 -99 -84 -29 -30 -47 -41 -70 -41 -16 0 -51 -11 -77 -25 -26 -14
-58 -25 -72 -25 -14 0 -28 -5 -31 -10 -6 -9 55 -126 90 -173 12 -17 15 -17 56
-1 62 24 122 67 210 149 101 94 224 181 277 195 48 12 101 14 277 8 95 -3 137
-10 201 -31 45 -14 133 -33 195 -41 63 -8 137 -20 164 -26 58 -13 162 -67 223
-117 24 -19 46 -33 49 -30 2 3 27 57 54 119 l49 113 -27 23 c-70 58 -151 87
-289 102 -80 8 -101 7 -210 -17 -119 -26 -122 -26 -170 -9 -27 10 -89 23 -139
31 -49 7 -114 20 -144 29 -33 10 -69 13 -92 10 -26 -5 -46 -2 -61 8 -13 8 -53
20 -89 27 -77 13 -81 13 -95 3z"/>
<path d="M3041 1032 c-117 -23 -119 -51 -6 -66 148 -21 179 -34 301 -122 65
-46 134 -89 154 -94 21 -6 47 -23 60 -40 44 -57 64 -64 205 -71 72 -3 137 -9
147 -13 12 -6 30 10 73 64 32 39 56 72 54 74 -2 1 -44 20 -94 41 -73 31 -106
39 -180 44 -73 5 -99 11 -135 33 -25 14 -73 35 -105 46 -33 12 -94 36 -135 56
-83 39 -178 67 -225 65 -16 0 -68 -8 -114 -17z"/>
<path d="M2850 833 c-72 -13 -330 -125 -330 -143 0 -17 115 -120 134 -120 11
0 46 13 76 29 80 41 218 72 315 70 44 -1 134 2 200 7 145 11 151 21 50 77
-151 83 -148 82 -290 84 -71 0 -141 -1 -155 -4z"/>
<path d="M3269 587 c-20 -8 -76 -39 -125 -70 -103 -65 -158 -87 -223 -88 l-46
-1 35 -15 c154 -68 458 -71 655 -7 93 31 92 28 28 89 -32 30 -77 64 -100 76
-54 26 -173 35 -224 16z"/>
</g>
</svg>
